<?xml version="1.0"?>
<svg width="80" height="80" xmlns="http://www.w3.org/2000/svg" xmlns:svg="http://www.w3.org/2000/svg">
 <defs>
  <clipPath id="clip0_3_2">
   <rect fill="white" height="80" id="svg_1" width="80"/>
  </clipPath>
 </defs>
 <g class="layer">
  <title>Layer 1</title>
  <g clip-path="url(#clip0_3_2)" id="svg_2">
   <path d="m73.33,45.33c0.74,0 1.34,-0.59 1.34,-1.33l0,-5.33c0,-0.74 -0.6,-1.34 -1.34,-1.34l-6.66,0l0,-1.33c0,-0.74 -0.6,-1.33 -1.34,-1.33c-0.73,0 -1.33,0.59 -1.33,1.33l0,1.33l-37.33,0l0,-1.33c0,-0.74 -0.6,-1.33 -1.34,-1.33c-0.73,0 -1.33,0.59 -1.33,1.33l0,1.33l-6.67,0c-0.73,0 -1.33,0.6 -1.33,1.34l0,5.33c0,0.74 0.6,1.33 1.33,1.33l8,0l40,0l8,0zm-54.66,-2.66l0,-2.67l53.33,0l0,2.67l-53.33,0z" fill="#91f9bb" id="svg_3"/>
   <path d="m48,29.33c-2.16,0 -3.55,1.64 -3.7,1.83c-0.46,0.57 -0.38,1.39 0.19,1.86c0.56,0.47 1.4,0.39 1.87,-0.17c0.01,-0.01 0.73,-0.85 1.64,-0.85c0.91,0 1.63,0.84 1.63,0.84c0.27,0.33 0.65,0.49 1.04,0.49c0.29,0 0.59,-0.09 0.84,-0.3c0.57,-0.46 0.66,-1.3 0.19,-1.87c-0.15,-0.19 -1.54,-1.83 -3.7,-1.83z" fill="#91f9bb" id="svg_4"/>
   <path d="m73.33,56c0.74,0 1.34,-0.6 1.34,-1.33l0,-5.34c0,-0.73 -0.6,-1.33 -1.34,-1.33l-6.66,0l0,-1.33c0,-0.74 -0.6,-1.34 -1.34,-1.34c-0.73,0 -1.33,0.6 -1.33,1.34l0,1.33l-37.33,0l0,-1.33c0,-0.74 -0.6,-1.34 -1.34,-1.34c-0.73,0 -1.33,0.6 -1.33,1.34l0,1.33l-6.67,0c-0.73,0 -1.33,0.6 -1.33,1.33l0,5.34c0,0.73 0.6,1.33 1.33,1.33l8,0l40,0l8,0zm-54.66,-2.67l0,-2.66l53.33,0l0,2.66l-53.33,0z" fill="#91f9bb" id="svg_5"/>
   <path d="m54.97,26.17c0.26,0.33 0.64,0.5 1.03,0.5c0.3,0 0.59,-0.1 0.84,-0.3c0.57,-0.47 0.66,-1.31 0.19,-1.88c-0.15,-0.18 -1.54,-1.82 -3.7,-1.82c-2.15,0 -3.55,1.64 -3.7,1.82c-0.46,0.57 -0.37,1.4 0.19,1.86c0.56,0.47 1.4,0.39 1.87,-0.17c0.01,-0.01 0.73,-0.85 1.64,-0.85c0.91,0 1.64,0.84 1.64,0.84z" fill="#91f9bb" id="svg_6"/>
   <path d="m1.34,17.47c0.07,0.68 0.64,1.2 1.33,1.2l8,0c0.68,0 1.26,-0.52 1.32,-1.2l1.34,-13.34c0.03,-0.37 -0.09,-0.74 -0.34,-1.02c-0.25,-0.28 -0.61,-0.44 -0.99,-0.44l-4,0l0,-1.34c0,-0.73 -0.6,-1.33 -1.33,-1.33c-0.74,0 -1.34,0.6 -1.34,1.33l0,1.34l-4,0c-0.37,0 -0.73,0.16 -0.98,0.44c-0.26,0.28 -0.38,0.65 -0.34,1.02l1.33,13.34zm9.19,-12.14l-1.07,10.67l-5.59,0l-1.06,-10.67l7.72,0z" fill="#91f9bb" id="svg_7"/>
   <path d="m37.33,30.67c0,1.49 0.61,2.87 1.72,3.9c0.26,0.24 0.58,0.36 0.91,0.36c0.35,0 0.71,-0.15 0.97,-0.43c0.5,-0.54 0.47,-1.39 -0.07,-1.89c-0.55,-0.51 -0.86,-1.2 -0.86,-1.94c0,-1.11 0.7,-2.11 1.75,-2.49c0.44,-0.16 0.76,-0.54 0.85,-0.99c0.09,-0.46 -0.07,-0.93 -0.4,-1.24c-0.56,-0.52 -0.87,-1.21 -0.87,-1.95c0,-1.39 1.1,-2.55 2.49,-2.64c0.51,-0.04 0.96,-0.36 1.15,-0.84c0.19,-0.47 0.09,-1.02 -0.26,-1.39c-0.46,-0.5 -0.71,-1.14 -0.71,-1.8c0,-1.38 1.09,-2.54 2.49,-2.64c0.51,-0.03 0.95,-0.36 1.14,-0.83c0.19,-0.48 0.09,-1.02 -0.25,-1.4c-0.46,-0.5 -0.71,-1.14 -0.71,-1.79c0,-1.2 0.81,-2.25 1.97,-2.56c0.37,-0.1 0.68,-0.35 0.85,-0.69c0.17,-0.34 0.18,-0.74 0.04,-1.09c-0.13,-0.33 -0.2,-0.66 -0.2,-1c0,-1.47 1.2,-2.66 2.67,-2.66c1.47,0 2.67,1.19 2.67,2.66c0,0.34 -0.07,0.67 -0.2,1c-0.14,0.35 -0.13,0.75 0.05,1.09c0.16,0.34 0.47,0.59 0.84,0.69c1.16,0.31 1.97,1.36 1.97,2.56c0,0.65 -0.25,1.29 -0.71,1.79c-0.34,0.38 -0.44,0.92 -0.25,1.4c0.19,0.47 0.63,0.8 1.15,0.83c1.39,0.1 2.48,1.26 2.48,2.64c0,0.66 -0.25,1.3 -0.71,1.8c-0.35,0.37 -0.45,0.92 -0.26,1.39c0.19,0.48 0.64,0.8 1.15,0.84c1.4,0.09 2.49,1.25 2.49,2.64c0,0.74 -0.31,1.43 -0.87,1.95c-0.33,0.31 -0.49,0.78 -0.4,1.24c0.09,0.45 0.41,0.83 0.85,0.99c1.05,0.38 1.75,1.38 1.75,2.49c0,0.73 0.6,1.33 1.33,1.33c0.74,0 1.34,-0.6 1.34,-1.33c0,-1.63 -0.76,-3.14 -1.98,-4.13c0.42,-0.77 0.64,-1.64 0.64,-2.54c0,-2.09 -1.22,-3.92 -3.01,-4.78c0.23,-0.6 0.35,-1.24 0.35,-1.89c0,-2.08 -1.23,-3.91 -3.02,-4.78c0.23,-0.6 0.35,-1.24 0.35,-1.88c0,-1.95 -1.07,-3.7 -2.71,-4.63c0.03,-0.24 0.04,-0.47 0.04,-0.71c0,-2.94 -2.39,-5.33 -5.33,-5.33c-2.94,0 -5.33,2.39 -5.33,5.33c0,0.24 0.01,0.47 0.04,0.71c-1.64,0.93 -2.71,2.68 -2.71,4.63c0,0.64 0.12,1.28 0.35,1.88c-1.79,0.87 -3.02,2.7 -3.02,4.78c0,0.65 0.12,1.29 0.35,1.89c-1.79,0.86 -3.01,2.69 -3.01,4.78c0,0.9 0.22,1.77 0.64,2.54c-1.22,0.99 -1.98,2.5 -1.98,4.13z" fill="#91f9bb" id="svg_8"/>
   <path d="m50.16,18.56c0.68,0.28 1.46,-0.04 1.74,-0.72c0.03,-0.06 0.06,-0.13 0.1,-0.2c0.04,0.06 0.07,0.13 0.1,0.2c0.21,0.51 0.71,0.83 1.23,0.83c0.17,0 0.34,-0.03 0.5,-0.1c0.69,-0.28 1.02,-1.06 0.74,-1.74c-0.15,-0.36 -0.96,-2.16 -2.57,-2.16c-1.61,0 -2.42,1.8 -2.57,2.16c-0.28,0.68 0.05,1.45 0.73,1.73z" fill="#91f9bb" id="svg_9"/>
   <path d="m78.67,77.33l-21.34,0c-0.73,0 -1.33,0.6 -1.33,1.34c0,0.73 0.6,1.33 1.33,1.33l21.34,0c0.73,0 1.33,-0.6 1.33,-1.33c0,-0.74 -0.6,-1.34 -1.33,-1.34z" fill="#91f9bb" id="svg_10"/>
   <path d="m78.67,58.67l-12,0l0,-1.34c0,-0.73 -0.6,-1.33 -1.34,-1.33c-0.73,0 -1.33,0.6 -1.33,1.33l0,1.34l-37.33,0l0,-1.34c0,-0.73 -0.6,-1.33 -1.34,-1.33c-0.73,0 -1.33,0.6 -1.33,1.33l0,1.34l-12,0c-0.74,0 -1.33,0.59 -1.33,1.33l0,5.33c0,0.74 0.59,1.34 1.33,1.34l4,0l0,6.66c0,0.74 0.6,1.34 1.33,1.34c0.74,0 1.34,-0.6 1.34,-1.34l0,-6.66l53.33,0l0,6.66c0,0.74 0.6,1.34 1.33,1.34c0.74,0 1.34,-0.6 1.34,-1.34l0,-6.66l4,0c0.73,0 1.33,-0.6 1.33,-1.34l0,-5.33c0,-0.74 -0.6,-1.33 -1.33,-1.33zm-1.34,5.33l-64,0l0,-2.67l64,0l0,2.67z" fill="#91f9bb" id="svg_11"/>
   <path d="m20,77.33l-12,0l0,-54.66c0,-0.74 -0.6,-1.34 -1.33,-1.34c-0.74,0 -1.34,0.6 -1.34,1.34l0,54.66l-4,0c-0.73,0 -1.33,0.6 -1.33,1.34c0,0.73 0.6,1.33 1.33,1.33l18.67,0c0.74,0 1.33,-0.6 1.33,-1.33c0,-0.74 -0.59,-1.34 -1.33,-1.34z" fill="#91f9bb" id="svg_12"/>
   <path d="m52,77.33l-2.67,0c-0.73,0 -1.33,0.6 -1.33,1.34c0,0.73 0.6,1.33 1.33,1.33l2.67,0c0.74,0 1.33,-0.6 1.33,-1.33c0,-0.74 -0.59,-1.34 -1.33,-1.34z" fill="#91f9bb" id="svg_13"/>
   <path d="m41.33,77.33l-13.33,0c-0.74,0 -1.33,0.6 -1.33,1.34c0,0.73 0.59,1.33 1.33,1.33l13.33,0c0.74,0 1.34,-0.6 1.34,-1.33c0,-0.74 -0.6,-1.34 -1.34,-1.34z" fill="#91f9bb" id="svg_14"/>
  </g>
 </g>
</svg>