<?xml version="1.0"?>
<svg width="80" height="80" xmlns="http://www.w3.org/2000/svg" xmlns:svg="http://www.w3.org/2000/svg">
 <g class="layer">
  <title>Layer 1</title>
  <path d="m20,68l-18.67,0c-0.73,0 -1.33,0.6 -1.33,1.33c0,0.74 0.6,1.34 1.33,1.34l18.67,0c0.74,0 1.33,-0.6 1.33,-1.34c0,-0.73 -0.59,-1.33 -1.33,-1.33z" fill="#91f9bb" id="svg_1"/>
  <path d="m16,65.33c8.82,0 16,-7.18 16,-16c0,-4.42 -1.76,-8.53 -4.96,-11.58c-0.53,-0.51 -1.38,-0.49 -1.89,0.04c-0.5,0.54 -0.48,1.38 0.05,1.89c2.66,2.54 4.13,5.97 4.13,9.65c0,7.35 -5.98,13.33 -13.33,13.33c-7.35,0 -13.33,-5.98 -13.33,-13.33c0,-7.35 5.98,-13.33 13.33,-13.33c0.74,0 1.33,-0.6 1.33,-1.33c0,-0.74 -0.59,-1.34 -1.33,-1.34c-8.82,0 -16,7.18 -16,16c0,8.82 7.18,16 16,16z" fill="#91f9bb" id="svg_2"/>
  <path d="m22.67,28l0.67,0l-7.7,18.7c-1.3,0.18 -2.31,1.28 -2.31,2.63c0,1.47 1.2,2.67 2.67,2.67c1.47,0 2.67,-1.2 2.67,-2.67c0,-0.61 -0.22,-1.16 -0.56,-1.61l7.52,-18.27l8.44,12.25c0.42,0.6 1.24,0.76 1.85,0.34c0.61,-0.42 0.76,-1.25 0.34,-1.85l-8.39,-12.19l2.8,0c2.2,0 4,-1.8 4,-4c0,-2.21 -1.8,-4 -4,-4l-8,0c-0.74,0 -1.34,0.59 -1.34,1.33l0,5.33c0,0.74 0.6,1.34 1.34,1.34zm1.33,-5.34l6.67,0c0.73,0 1.33,0.6 1.33,1.34c0,0.73 -0.6,1.33 -1.33,1.33l-6.67,0l0,-2.67z" fill="#91f9bb" id="svg_3"/>
  <path d="m62.67,34.66c0,0.74 0.59,1.34 1.33,1.34c7.35,0 13.33,5.98 13.33,13.33c0,7.35 -5.98,13.33 -13.33,13.33c-7.35,0 -13.33,-5.98 -13.33,-13.33c0,-3.99 1.77,-7.75 4.85,-10.29c0.57,-0.47 0.65,-1.31 0.18,-1.88c-0.47,-0.56 -1.3,-0.65 -1.87,-0.18c-3.71,3.06 -5.83,7.56 -5.83,12.35c0,8.82 7.18,16 16,16c8.82,0 16,-7.18 16,-16c0,-8.82 -7.18,-16 -16,-16c-0.74,0 -1.33,0.6 -1.33,1.33z" fill="#91f9bb" id="svg_4"/>
  <path d="m41.33,68l-13.33,0c-0.74,0 -1.33,0.6 -1.33,1.33c0,0.74 0.59,1.34 1.33,1.34l13.33,0c0.74,0 1.34,-0.6 1.34,-1.34c0,-0.73 -0.6,-1.33 -1.34,-1.33z" fill="#91f9bb" id="svg_5"/>
  <path d="m41.33,42.85l0,-4.19c0.74,0 1.34,-0.59 1.34,-1.33c0,-0.74 -0.6,-1.33 -1.34,-1.33l-2.66,0c-0.74,0 -1.34,0.59 -1.34,1.33c0,0.74 0.6,1.33 1.34,1.33l0,4.19c-2.3,0.6 -4,2.67 -4,5.15c0,2.48 1.7,4.55 4,5.14l0,4.19c-0.74,0 -1.34,0.6 -1.34,1.34c0,0.73 0.6,1.33 1.34,1.33l2.66,0c0.74,0 1.34,-0.6 1.34,-1.33c0,-0.74 -0.6,-1.34 -1.34,-1.34l0,-4.19c2.3,-0.59 4,-2.66 4,-5.14c0,-2.48 -1.7,-4.55 -4,-5.15zm-1.33,7.81c-1.47,0 -2.67,-1.19 -2.67,-2.66c0,-1.47 1.2,-2.67 2.67,-2.67c1.47,0 2.67,1.2 2.67,2.67c0,1.47 -1.2,2.66 -2.67,2.66z" fill="#91f9bb" id="svg_6"/>
  <path d="m61.95,47.65c-0.38,0.46 -0.62,1.04 -0.62,1.68c0,1.47 1.2,2.67 2.67,2.67c1.47,0 2.67,-1.2 2.67,-2.67c0,-1.32 -0.97,-2.41 -2.23,-2.62l-6.02,-16.05l9.52,0c1.6,0 2.53,-1.27 2.7,-2.4l1.33,-6.67c0.08,-0.39 -0.02,-0.8 -0.27,-1.1c-0.26,-0.31 -0.63,-0.49 -1.03,-0.49l-12,0c-0.74,0 -1.34,0.59 -1.34,1.33c0,0.74 0.6,1.33 1.34,1.33l10.37,0l-1.02,5.11c-0.02,0.09 -0.08,0.22 -0.08,0.23l-10.52,0l-4.17,-11.14c0,0 -0.01,0 -0.01,-0.01c0,-0.01 0,-0.01 0,-0.01l-2.67,-6.67c-0.27,-0.69 -1.05,-1.01 -1.73,-0.74c-0.69,0.27 -1.02,1.05 -0.75,1.73l2.43,6.07l-5.01,8.77c-0.37,0.64 -0.14,1.46 0.5,1.82c0.2,0.12 0.43,0.18 0.66,0.18c0.46,0 0.91,-0.24 1.15,-0.67l3.93,-6.87l3.21,8.55l-10.16,11.43c-0.49,0.56 -0.44,1.4 0.11,1.89c0.25,0.22 0.57,0.33 0.88,0.33c0.37,0 0.74,-0.15 1,-0.44l9.23,-10.38l5.93,15.81z" fill="#91f9bb" id="svg_7"/>
  <path d="m78.67,68l-21.34,0c-0.73,0 -1.33,0.6 -1.33,1.33c0,0.74 0.6,1.34 1.33,1.34l21.34,0c0.73,0 1.33,-0.6 1.33,-1.34c0,-0.73 -0.6,-1.33 -1.33,-1.33z" fill="#91f9bb" id="svg_8"/>
  <path d="m52,68l-2.67,0c-0.73,0 -1.33,0.6 -1.33,1.33c0,0.74 0.6,1.34 1.33,1.34l2.67,0c0.74,0 1.33,-0.6 1.33,-1.34c0,-0.73 -0.59,-1.33 -1.33,-1.33z" fill="#91f9bb" id="svg_9"/>
 </g>

</svg>