<?xml version="1.0"?>
<svg width="80" height="80" xmlns="http://www.w3.org/2000/svg" xmlns:svg="http://www.w3.org/2000/svg">
 <defs>
  <clipPath id="clip0_3_18">
   <rect fill="white" height="80" id="svg_1" width="80"/>
  </clipPath>
 </defs>
 <g class="layer">
  <title>Layer 1</title>
  <g clip-path="url(#clip0_3_18)" id="svg_2">
   <path d="m57.33,74.67l-37.33,0c-0.74,0 -1.33,0.59 -1.33,1.33l0,2.67c0,0.73 0.59,1.33 1.33,1.33c0.74,0 1.33,-0.6 1.33,-1.33l0,-1.34l36,0c0.74,0 1.34,-0.59 1.34,-1.33c0,-0.74 -0.6,-1.33 -1.34,-1.33z" fill="#91f9bb" id="svg_3"/>
   <path d="m29.33,33.33c0,0.74 0.6,1.34 1.34,1.34l5.33,0c0.74,0 1.33,-0.6 1.33,-1.34l0,-8c0,-0.73 -0.59,-1.33 -1.33,-1.33l-5.33,0c-0.74,0 -1.34,0.6 -1.34,1.33l0,8l0,0zm2.67,-6.66l2.67,0l0,5.33l-2.67,0l0,-5.33z" fill="#91f9bb" id="svg_4"/>
   <path d="m17.33,16l-16,0c-0.73,0 -1.33,0.6 -1.33,1.33l0,26.67c0,0.74 0.6,1.33 1.33,1.33c0.74,0 1.34,-0.59 1.34,-1.33l0,-25.33l14.66,0c0.74,0 1.34,-0.6 1.34,-1.34c0,-0.73 -0.6,-1.33 -1.34,-1.33z" fill="#91f9bb" id="svg_5"/>
   <path d="m64,65.33c0,0.74 0.6,1.34 1.33,1.34l5.34,0c0.73,0 1.33,-0.6 1.33,-1.34l0,-8c0,-0.73 -0.6,-1.33 -1.33,-1.33l-5.34,0c-0.73,0 -1.33,0.6 -1.33,1.33l0,8zm2.67,-6.66l2.66,0l0,5.33l-2.66,0l0,-5.33z" fill="#91f9bb" id="svg_6"/>
   <path d="m6.67,48c-6.59,0 -6.67,17.16 -6.67,17.33c0,3.22 2.29,5.92 5.33,6.54l0,6.8c0,0.73 0.6,1.33 1.34,1.33c0.73,0 1.33,-0.6 1.33,-1.33l0,-6.8c3.04,-0.62 5.33,-3.32 5.33,-6.54c0,-0.17 -0.07,-17.33 -6.66,-17.33zm0,21.33c-2.21,0 -4,-1.79 -4,-4c0,-6.64 1.78,-14.66 4,-14.66c2.21,0 4,8.02 4,14.66c0,2.21 -1.8,4 -4,4z" fill="#91f9bb" id="svg_7"/>
   <path d="m14.67,40l-5.34,0c-0.73,0 -1.33,0.6 -1.33,1.33l0,2.67c0,0.74 0.6,1.33 1.33,1.33c0.74,0 1.34,-0.59 1.34,-1.33l0,-1.33l2.66,0l0,6.66c0,0.74 0.6,1.34 1.34,1.34c0.73,0 1.33,-0.6 1.33,-1.34l0,-8c0,-0.73 -0.6,-1.33 -1.33,-1.33z" fill="#91f9bb" id="svg_8"/>
   <path d="m65.33,34.67l5.34,0c0.73,0 1.33,-0.6 1.33,-1.34l0,-8c0,-0.73 -0.6,-1.33 -1.33,-1.33l-5.34,0c-0.73,0 -1.33,0.6 -1.33,1.33l0,8c0,0.74 0.6,1.34 1.33,1.34zm1.34,-8l2.66,0l0,5.33l-2.66,0l0,-5.33z" fill="#91f9bb" id="svg_9"/>
   <path d="m14.67,24l-5.34,0c-0.73,0 -1.33,0.6 -1.33,1.33l0,8c0,0.74 0.6,1.34 1.33,1.34l5.34,0c0.73,0 1.33,-0.6 1.33,-1.34l0,-8c0,-0.73 -0.6,-1.33 -1.33,-1.33zm-1.34,8l-2.66,0l0,-5.33l2.66,0l0,5.33l0,0z" fill="#91f9bb" id="svg_10"/>
   <path d="m42.67,33.33c0,0.74 0.59,1.34 1.33,1.34l5.33,0c0.74,0 1.34,-0.6 1.34,-1.34l0,-8c0,-0.73 -0.6,-1.33 -1.34,-1.33l-5.33,0c-0.74,0 -1.33,0.6 -1.33,1.33l0,8zm2.66,-6.66l2.67,0l0,5.33l-2.67,0l0,-5.33z" fill="#91f9bb" id="svg_11"/>
   <path d="m78.67,16l-16,0c-0.74,0 -1.34,0.6 -1.34,1.33c0,0.74 0.6,1.34 1.34,1.34l14.66,0l0,53.58c-0.42,-0.15 -0.86,-0.25 -1.33,-0.25c-0.23,0 -0.46,0.02 -0.69,0.06c-0.92,-1.66 -2.67,-2.73 -4.64,-2.73c-1.98,0 -3.73,1.07 -4.65,2.73c-0.23,-0.04 -0.46,-0.06 -0.69,-0.06c-2.2,0 -4,1.79 -4,4c0,2.21 1.8,4 4,4l10.67,0c2.21,0 4,-1.79 4,-4l0,-58.67c0,-0.73 -0.6,-1.33 -1.33,-1.33zm-2.67,61.33l-10.67,0c-0.73,0 -1.33,-0.6 -1.33,-1.33c0,-0.73 0.6,-1.33 1.33,-1.33c0.26,0 0.5,0.07 0.73,0.21c0.36,0.24 0.82,0.28 1.22,0.12c0.4,-0.16 0.7,-0.51 0.8,-0.94c0.28,-1.21 1.34,-2.06 2.59,-2.06c1.24,0 2.3,0.85 2.59,2.06c0.09,0.43 0.39,0.78 0.79,0.94c0.4,0.16 0.86,0.12 1.23,-0.12c0.87,-0.56 2.05,0.13 2.05,1.12c0,0.73 -0.6,1.33 -1.33,1.33z" fill="#91f9bb" id="svg_12"/>
   <path d="m44,18.67l5.33,0c0.74,0 1.34,-0.6 1.34,-1.34l0,-8c0,-0.73 -0.6,-1.33 -1.34,-1.33l-5.33,0c-0.74,0 -1.33,0.6 -1.33,1.33l0,8c0,0.74 0.59,1.34 1.33,1.34zm1.33,-8l2.67,0l0,5.33l-2.67,0l0,-5.33z" fill="#91f9bb" id="svg_13"/>
   <path d="m42.67,49.33c0,0.74 0.59,1.34 1.33,1.34l5.33,0c0.74,0 1.34,-0.6 1.34,-1.34l0,-8c0,-0.73 -0.6,-1.33 -1.34,-1.33l-5.33,0c-0.74,0 -1.33,0.6 -1.33,1.33l0,8zm2.66,-6.66l2.67,0l0,5.33l-2.67,0l0,-5.33z" fill="#91f9bb" id="svg_14"/>
   <path d="m30.67,18.67l5.33,0c0.74,0 1.33,-0.6 1.33,-1.34l0,-8c0,-0.73 -0.59,-1.33 -1.33,-1.33l-5.33,0c-0.74,0 -1.34,0.6 -1.34,1.33l0,8c0,0.74 0.6,1.34 1.34,1.34zm1.33,-8l2.67,0l0,5.33l-2.67,0l0,-5.33z" fill="#91f9bb" id="svg_15"/>
   <path d="m39.05,64.39c-0.24,0.25 -0.38,0.6 -0.38,0.94c0,0.35 0.14,0.7 0.38,0.95c0.26,0.24 0.6,0.39 0.95,0.39c0.35,0 0.69,-0.15 0.95,-0.39c0.24,-0.25 0.38,-0.6 0.38,-0.95c0,-0.34 -0.14,-0.69 -0.38,-0.94c-0.51,-0.5 -1.39,-0.5 -1.9,0z" fill="#91f9bb" id="svg_16"/>
   <path d="m29.33,49.33c0,0.74 0.6,1.34 1.34,1.34l5.33,0c0.74,0 1.33,-0.6 1.33,-1.34l0,-8c0,-0.73 -0.59,-1.33 -1.33,-1.33l-5.33,0c-0.74,0 -1.34,0.6 -1.34,1.33l0,8l0,0zm2.67,-6.66l2.67,0l0,5.33l-2.67,0l0,-5.33z" fill="#91f9bb" id="svg_17"/>
   <path d="m26.67,57.33c0,0.74 0.59,1.34 1.33,1.34l4,0l0,12c0,0.73 0.6,1.33 1.33,1.33c0.74,0 1.34,-0.6 1.34,-1.33l0,-12l10.66,0l0,12c0,0.73 0.6,1.33 1.34,1.33c0.73,0 1.33,-0.6 1.33,-1.33l0,-12l4,0c0.74,0 1.33,-0.6 1.33,-1.34c0,-0.73 -0.59,-1.33 -1.33,-1.33l-24,0c-0.74,0 -1.33,0.6 -1.33,1.33z" fill="#91f9bb" id="svg_18"/>
   <path d="m64,49.33c0,0.74 0.6,1.34 1.33,1.34l5.34,0c0.73,0 1.33,-0.6 1.33,-1.34l0,-8c0,-0.73 -0.6,-1.33 -1.33,-1.33l-5.34,0c-0.73,0 -1.33,0.6 -1.33,1.33l0,8zm2.67,-6.66l2.66,0l0,5.33l-2.66,0l0,-5.33z" fill="#91f9bb" id="svg_19"/>
   <path d="m57.33,0l-34.66,0c-0.74,0 -1.34,0.6 -1.34,1.33l0,69.34c0,0.73 0.6,1.33 1.34,1.33c0.73,0 1.33,-0.6 1.33,-1.33l0,-68l32,0l0,68c0,0.73 0.6,1.33 1.33,1.33c0.74,0 1.34,-0.6 1.34,-1.33l0,-69.34c0,-0.73 -0.6,-1.33 -1.34,-1.33z" fill="#91f9bb" id="svg_20"/>
  </g>
 </g>
</svg>