<?xml version="1.0"?>
<svg width="80" height="80" xmlns="http://www.w3.org/2000/svg" xmlns:svg="http://www.w3.org/2000/svg">
 <defs>
  <clipPath id="clip0_5_2">
   <rect fill="white" height="80" id="svg_1" width="80"/>
  </clipPath>
 </defs>
 <g class="layer">
  <title>Layer 1</title>
  <g clip-path="url(#clip0_5_2)" id="svg_2">
   <path d="m53.39,4.62c0.18,0 0.37,-0.04 0.54,-0.12c0.38,-0.17 0.77,-0.33 1.16,-0.48c0.69,-0.26 1.04,-1.03 0.78,-1.72c-0.26,-0.68 -1.04,-1.03 -1.72,-0.77c-0.44,0.17 -0.88,0.35 -1.31,0.54c-0.67,0.3 -0.97,1.09 -0.67,1.76c0.22,0.5 0.71,0.79 1.22,0.79z" fill="#91f9bb" id="svg_3"/>
   <path d="m53.33,33.54c0.74,0 1.34,-0.6 1.34,-1.34l0,-0.23c0,-0.35 0.02,-0.69 0.06,-1.03c0.1,-0.73 -0.42,-1.4 -1.14,-1.5c-0.76,-0.09 -1.4,0.42 -1.5,1.15c-0.06,0.45 -0.09,0.92 -0.09,1.38l0,0.23c0,0.74 0.6,1.34 1.33,1.34z" fill="#91f9bb" id="svg_4"/>
   <path d="m46.67,33.87c0.73,0 1.33,-0.6 1.33,-1.34l0,-1.35c0,-0.74 -0.6,-1.33 -1.33,-1.33c-0.74,0 -1.34,0.59 -1.34,1.33l0,1.35c0,0.74 0.6,1.34 1.34,1.34z" fill="#91f9bb" id="svg_5"/>
   <path d="m54.32,12.78c-0.43,0.23 -0.85,0.49 -1.25,0.76c-0.61,0.41 -0.78,1.24 -0.37,1.85c0.26,0.38 0.68,0.59 1.11,0.59c0.26,0 0.51,-0.07 0.74,-0.22c0.34,-0.23 0.7,-0.45 1.06,-0.65c0.64,-0.35 0.88,-1.16 0.52,-1.81c-0.35,-0.64 -1.16,-0.88 -1.81,-0.52z" fill="#91f9bb" id="svg_6"/>
   <path d="m35.41,12.64c0.25,0.4 0.69,0.63 1.13,0.63c0.24,0 0.49,-0.07 0.71,-0.21c0.62,-0.39 0.81,-1.21 0.42,-1.84c-0.25,-0.4 -0.52,-0.79 -0.79,-1.17c-0.43,-0.6 -1.26,-0.74 -1.86,-0.31c-0.6,0.43 -0.74,1.26 -0.31,1.86c0.24,0.34 0.48,0.69 0.7,1.04z" fill="#91f9bb" id="svg_7"/>
   <path d="m59.79,2.82c0.05,0 0.11,0 0.17,-0.01c0.41,-0.05 0.83,-0.09 1.25,-0.12c0.73,-0.05 1.29,-0.68 1.24,-1.42c-0.05,-0.73 -0.69,-1.29 -1.42,-1.24c-0.47,0.03 -0.94,0.08 -1.41,0.14c-0.73,0.09 -1.25,0.75 -1.15,1.49c0.08,0.67 0.66,1.16 1.32,1.16z" fill="#91f9bb" id="svg_8"/>
   <path d="m54.84,24.72c-0.5,0.54 -0.47,1.39 0.07,1.89c0.26,0.23 0.59,0.35 0.91,0.35c0.36,0 0.72,-0.14 0.98,-0.42c0.28,-0.3 0.58,-0.59 0.91,-0.84c0.58,-0.46 0.67,-1.3 0.21,-1.88c-0.45,-0.57 -1.29,-0.67 -1.87,-0.21c-0.43,0.34 -0.84,0.71 -1.21,1.11z" fill="#91f9bb" id="svg_9"/>
   <path d="m42.75,13.06c0.22,0.14 0.47,0.21 0.71,0.21c0.44,0 0.88,-0.23 1.13,-0.63c0.22,-0.35 0.46,-0.7 0.7,-1.04c0.43,-0.6 0.29,-1.43 -0.31,-1.86c-0.6,-0.43 -1.43,-0.29 -1.86,0.31c-0.27,0.38 -0.54,0.77 -0.79,1.17c-0.39,0.63 -0.2,1.45 0.42,1.84z" fill="#91f9bb" id="svg_10"/>
   <path d="m53.33,39.97c0.74,0 1.34,-0.59 1.34,-1.33l0,-0.67c0,-0.73 -0.6,-1.33 -1.34,-1.33c-0.73,0 -1.33,0.6 -1.33,1.33l0,0.67c0,0.74 0.6,1.33 1.33,1.33z" fill="#91f9bb" id="svg_11"/>
   <path d="m46.64,27.09c0.06,0.01 0.12,0.01 0.18,0.01c0.66,0 1.23,-0.48 1.32,-1.15c0.06,-0.41 0.13,-0.82 0.22,-1.22c0.16,-0.71 -0.29,-1.43 -1.01,-1.59c-0.71,-0.16 -1.43,0.29 -1.59,1c-0.11,0.48 -0.2,0.96 -0.26,1.45c-0.1,0.73 0.41,1.4 1.14,1.5z" fill="#91f9bb" id="svg_12"/>
   <path d="m37.56,17.18c0.13,0.39 0.25,0.79 0.37,1.2c0.16,0.59 0.7,0.98 1.28,0.98c0.12,0 0.23,-0.01 0.35,-0.05c0.17,-0.04 0.31,-0.12 0.44,-0.21c0.13,0.09 0.27,0.17 0.44,0.21c0.12,0.04 0.23,0.05 0.35,0.05c0.58,0 1.12,-0.39 1.28,-0.98c0.12,-0.41 0.23,-0.81 0.37,-1.2c0.24,-0.7 -0.14,-1.46 -0.83,-1.69c-0.64,-0.22 -1.32,0.09 -1.61,0.68c-0.29,-0.59 -0.97,-0.9 -1.61,-0.68c-0.69,0.23 -1.07,0.99 -0.83,1.69z" fill="#91f9bb" id="svg_13"/>
   <path d="m47.79,8.21c0.31,0 0.62,-0.11 0.87,-0.33c0.32,-0.27 0.64,-0.54 0.97,-0.79c0.58,-0.45 0.69,-1.29 0.24,-1.87c-0.44,-0.59 -1.28,-0.7 -1.86,-0.25c-0.38,0.29 -0.74,0.59 -1.1,0.9c-0.56,0.48 -0.61,1.32 -0.13,1.88c0.26,0.3 0.63,0.46 1.01,0.46z" fill="#91f9bb" id="svg_14"/>
   <path d="m48.82,17.54c-0.29,0.39 -0.57,0.79 -0.83,1.21c-0.39,0.62 -0.2,1.44 0.42,1.84c0.22,0.13 0.46,0.2 0.71,0.2c0.44,0 0.87,-0.22 1.13,-0.62c0.22,-0.35 0.45,-0.69 0.7,-1.02c0.44,-0.59 0.33,-1.43 -0.26,-1.87c-0.59,-0.44 -1.43,-0.32 -1.87,0.26z" fill="#91f9bb" id="svg_15"/>
   <path d="m61.3,10.69c-0.49,0.04 -0.98,0.1 -1.45,0.18c-0.73,0.12 -1.22,0.81 -1.1,1.53c0.1,0.66 0.67,1.12 1.31,1.12c0.07,0 0.14,-0.01 0.22,-0.02c0.4,-0.07 0.81,-0.12 1.23,-0.15c0.73,-0.05 1.28,-0.7 1.22,-1.43c-0.05,-0.73 -0.68,-1.29 -1.43,-1.23z" fill="#91f9bb" id="svg_16"/>
   <path d="m66.24,2.92c0.41,0.07 0.82,0.15 1.23,0.24c0.1,0.02 0.19,0.03 0.29,0.03c0.61,0 1.16,-0.43 1.3,-1.05c0.16,-0.72 -0.3,-1.43 -1.02,-1.59c-0.46,-0.1 -0.92,-0.19 -1.39,-0.26c-0.72,-0.12 -1.4,0.38 -1.52,1.11c-0.12,0.72 0.38,1.41 1.11,1.52z" fill="#91f9bb" id="svg_17"/>
   <path d="m68.52,11.65c-0.46,-0.16 -0.93,-0.31 -1.4,-0.43c-0.71,-0.19 -1.44,0.23 -1.63,0.94c-0.19,0.72 0.23,1.45 0.94,1.64c0.4,0.1 0.8,0.22 1.19,0.36c0.15,0.06 0.3,0.08 0.45,0.08c0.54,0 1.06,-0.34 1.25,-0.88c0.25,-0.7 -0.11,-1.46 -0.8,-1.71z" fill="#91f9bb" id="svg_18"/>
   <path d="m62.12,21.32c-0.73,0.04 -1.3,0.66 -1.26,1.4c0.03,0.73 0.61,1.29 1.4,1.26c0.41,-0.02 0.83,0 1.23,0.04c0.05,0 0.1,0 0.14,0c0.68,0 1.26,-0.51 1.33,-1.19c0.07,-0.74 -0.46,-1.39 -1.19,-1.47c-0.54,-0.05 -1.1,-0.07 -1.65,-0.04z" fill="#91f9bb" id="svg_19"/>
   <path d="m77.68,8.87c0.26,0.29 0.63,0.44 0.99,0.44c0.32,0 0.64,-0.12 0.9,-0.35c0.54,-0.5 0.58,-1.34 0.08,-1.88c-0.16,-0.18 -0.32,-0.35 -0.48,-0.52c-0.52,-0.53 -1.36,-0.53 -1.89,-0.02c-0.53,0.52 -0.53,1.36 -0.02,1.89c0.14,0.14 0.28,0.29 0.42,0.44z" fill="#91f9bb" id="svg_20"/>
   <path d="m57.33,50.64l-16,0c-0.73,0 -1.33,0.6 -1.33,1.33c0,0.74 0.6,1.34 1.33,1.34l16,0c3.74,0 6.67,-2.93 6.67,-6.67l0,-2.67c0,-0.73 -0.6,-1.33 -1.33,-1.33l-45.34,0c-0.73,0 -1.33,0.6 -1.33,1.33l0,2.67c0,3.74 2.93,6.67 6.67,6.67l12,0l0,6.66c0,0.74 0.59,1.34 1.33,1.34c0.74,0 1.33,-0.6 1.33,-1.34l0,-8c0,-0.73 -0.59,-1.33 -1.33,-1.33l-13.33,0c-2.25,0 -4,-1.76 -4,-4l0,-1.33l42.66,0l0,1.33c0,2.24 -1.75,4 -4,4z" fill="#91f9bb" id="svg_21"/>
   <path d="m70.65,31.4c0.01,0.19 0.02,0.38 0.02,0.57c0,0.74 0.59,1.34 1.33,1.34c0.74,0 1.33,-0.6 1.33,-1.34c0,-0.25 -0.01,-0.51 -0.02,-0.76c-0.06,-0.73 -0.68,-1.29 -1.43,-1.23c-0.73,0.05 -1.29,0.69 -1.23,1.42z" fill="#91f9bb" id="svg_22"/>
   <path d="m67.83,24.08c-0.49,0.56 -0.43,1.4 0.12,1.89c0.31,0.27 0.6,0.57 0.86,0.88c0.26,0.32 0.64,0.48 1.03,0.48c0.3,0 0.6,-0.1 0.85,-0.31c0.56,-0.47 0.64,-1.31 0.17,-1.88c-0.35,-0.42 -0.74,-0.81 -1.15,-1.18c-0.55,-0.48 -1.39,-0.43 -1.88,0.12z" fill="#91f9bb" id="svg_23"/>
   <path d="m41.33,30.57c0,-0.74 -0.59,-1.34 -1.33,-1.34c-0.74,0 -1.33,0.6 -1.33,1.34l0,1.48c0,0.73 0.59,1.33 1.33,1.33c0.74,0 1.33,-0.6 1.33,-1.33l0,-1.48z" fill="#91f9bb" id="svg_24"/>
   <path d="m40,36.64c-0.74,0 -1.33,0.6 -1.33,1.33l0,0.67c0,0.74 0.59,1.33 1.33,1.33c0.74,0 1.33,-0.59 1.33,-1.33l0,-0.67c0,-0.73 -0.59,-1.33 -1.33,-1.33z" fill="#91f9bb" id="svg_25"/>
   <path d="m45.33,38.64c0,0.74 0.6,1.33 1.34,1.33c0.73,0 1.33,-0.59 1.33,-1.33l0,-0.67c0,-0.73 -0.6,-1.33 -1.33,-1.33c-0.74,0 -1.34,0.6 -1.34,1.33l0,0.67z" fill="#91f9bb" id="svg_26"/>
   <path d="m41.33,23.97c0,-0.21 0.01,-0.41 0.01,-0.62c0.02,-0.57 -0.33,-1.06 -0.83,-1.27c-0.05,-0.02 -0.11,-0.02 -0.16,-0.04c-0.1,-0.02 -0.19,-0.06 -0.3,-0.06c-0.02,-0.01 -0.03,-0.01 -0.04,-0.01c0,0 -0.01,0.01 -0.01,0.01c0,0 -0.01,-0.01 -0.01,-0.01c-0.01,0 -0.02,0 -0.04,0.01c-0.11,0 -0.2,0.04 -0.3,0.06c-0.05,0.02 -0.11,0.02 -0.16,0.04c-0.5,0.21 -0.85,0.7 -0.83,1.27c0,0.21 0.01,0.41 0.01,0.62l0,0.67c0,0.74 0.59,1.33 1.33,1.33c0.74,0 1.33,-0.59 1.33,-1.33l0,-0.67z" fill="#91f9bb" id="svg_27"/>
   <path d="m32,38.64c0,0.74 0.6,1.33 1.33,1.33c0.74,0 1.34,-0.59 1.34,-1.33l0,-0.67c0,-0.73 -0.6,-1.33 -1.34,-1.33c-0.73,0 -1.33,0.6 -1.33,1.33l0,0.67z" fill="#91f9bb" id="svg_28"/>
   <path d="m33.33,33.87c0.74,0 1.34,-0.6 1.34,-1.34l0,-1.35c0,-0.74 -0.6,-1.33 -1.34,-1.33c-0.73,0 -1.33,0.59 -1.33,1.33l0,1.35c0,0.74 0.6,1.34 1.33,1.34z" fill="#91f9bb" id="svg_29"/>
   <path d="m28,38.64l0,-0.67c0,-0.73 -0.6,-1.33 -1.33,-1.33c-0.74,0 -1.34,0.6 -1.34,1.33l0,0.67c0,0.74 0.6,1.33 1.34,1.33c0.73,0 1.33,-0.59 1.33,-1.33z" fill="#91f9bb" id="svg_30"/>
   <path d="m9.31,27.02c0.25,0.21 0.55,0.31 0.85,0.31c0.39,0 0.77,-0.16 1.03,-0.48c0.26,-0.31 0.55,-0.61 0.86,-0.88c0.55,-0.49 0.61,-1.33 0.12,-1.89c-0.49,-0.55 -1.33,-0.6 -1.88,-0.12c-0.41,0.37 -0.8,0.76 -1.15,1.18c-0.47,0.57 -0.39,1.41 0.17,1.88z" fill="#91f9bb" id="svg_31"/>
   <path d="m73.33,63.97l-28,0l0,-6.66c0,-0.74 -0.59,-1.34 -1.33,-1.34c-0.74,0 -1.33,0.6 -1.33,1.34l0,8c0,0.73 0.59,1.33 1.33,1.33l28,0l0,6.67c0,2.2 -1.79,4 -4,4l-56,0c-2.21,0 -4,-1.8 -4,-4l0,-6.67l30.78,0c0.73,0 1.33,-0.6 1.33,-1.33c0,-0.74 -0.6,-1.34 -1.33,-1.34l-32.11,0c-0.74,0 -1.34,0.6 -1.34,1.34l0,8c0,3.67 2.99,6.66 6.67,6.66l56,0c3.68,0 6.67,-2.99 6.67,-6.66l0,-8c0,-0.74 -0.6,-1.34 -1.34,-1.34z" fill="#91f9bb" id="svg_32"/>
   <path d="m32,70.64l0,2.67c0,0.73 0.6,1.33 1.33,1.33c0.74,0 1.34,-0.6 1.34,-1.33l0,-2.67c0,-0.74 -0.6,-1.33 -1.34,-1.33c-0.73,0 -1.33,0.59 -1.33,1.33z" fill="#91f9bb" id="svg_33"/>
   <path d="m1.39,25.98c-0.01,-0.01 -0.03,-0.01 -0.04,-0.01c-0.72,0 -1.31,0.57 -1.34,1.29c0,0.24 -0.01,0.48 -0.01,0.71c0,0.74 0.6,1.34 1.33,1.34c0.74,0 1.34,-0.6 1.34,-1.34c0,-0.2 0,-0.41 0.01,-0.62c0.02,-0.73 -0.55,-1.35 -1.29,-1.37z" fill="#91f9bb" id="svg_34"/>
   <path d="m7.15,17.41c0.3,-0.28 0.61,-0.56 0.93,-0.82c0.57,-0.47 0.66,-1.31 0.19,-1.88c-0.46,-0.57 -1.3,-0.65 -1.87,-0.19c-0.38,0.31 -0.75,0.64 -1.1,0.98c-0.53,0.51 -0.54,1.35 -0.03,1.88c0.26,0.27 0.61,0.41 0.96,0.41c0.33,0 0.67,-0.13 0.92,-0.38z" fill="#91f9bb" id="svg_35"/>
   <path d="m3.63,19.6c-0.66,-0.32 -1.46,-0.06 -1.79,0.6c-0.22,0.43 -0.42,0.88 -0.6,1.33c-0.28,0.69 0.06,1.46 0.74,1.74c0.16,0.06 0.33,0.09 0.49,0.09c0.53,0 1.03,-0.31 1.24,-0.84c0.16,-0.38 0.33,-0.76 0.51,-1.13c0.33,-0.66 0.07,-1.46 -0.59,-1.79z" fill="#91f9bb" id="svg_36"/>
   <path d="m6.03,5.56c0.22,0 0.45,-0.05 0.66,-0.17c0.36,-0.21 0.73,-0.41 1.11,-0.59c0.66,-0.33 0.93,-1.13 0.6,-1.79c-0.32,-0.66 -1.12,-0.93 -1.78,-0.6c-0.43,0.21 -0.85,0.43 -1.26,0.66c-0.63,0.37 -0.85,1.19 -0.49,1.83c0.25,0.42 0.7,0.66 1.16,0.66z" fill="#91f9bb" id="svg_37"/>
   <path d="m18.67,70.64l0,2.67c0,0.73 0.59,1.33 1.33,1.33c0.74,0 1.33,-0.6 1.33,-1.33l0,-2.67c0,-0.74 -0.59,-1.33 -1.33,-1.33c-0.74,0 -1.33,0.59 -1.33,1.33z" fill="#91f9bb" id="svg_38"/>
   <path d="m78.02,23.27c0.68,-0.28 1.02,-1.05 0.74,-1.74c-0.18,-0.45 -0.38,-0.9 -0.6,-1.33c-0.33,-0.66 -1.13,-0.92 -1.79,-0.6c-0.66,0.33 -0.92,1.13 -0.59,1.79c0.18,0.37 0.35,0.75 0.51,1.13c0.21,0.53 0.71,0.84 1.24,0.84c0.16,0 0.33,-0.03 0.49,-0.09z" fill="#91f9bb" id="svg_39"/>
   <path d="m79.99,27.26c-0.03,-0.74 -0.68,-1.33 -1.38,-1.28c-0.74,0.02 -1.31,0.64 -1.29,1.37c0.01,0.21 0.01,0.42 0.01,0.62c0,0.74 0.6,1.34 1.34,1.34c0.73,0 1.33,-0.6 1.33,-1.34c0,-0.23 -0.01,-0.47 -0.01,-0.71z" fill="#91f9bb" id="svg_40"/>
   <path d="m74.64,3.07c-0.41,-0.23 -0.83,-0.45 -1.26,-0.66c-0.65,-0.33 -1.46,-0.06 -1.78,0.6c-0.33,0.66 -0.06,1.46 0.6,1.79c0.38,0.18 0.75,0.38 1.11,0.59c0.21,0.12 0.44,0.17 0.66,0.17c0.46,0 0.91,-0.24 1.16,-0.66c0.36,-0.64 0.14,-1.46 -0.49,-1.83z" fill="#91f9bb" id="svg_41"/>
   <path d="m61.33,73.31l0,-2.67c0,-0.74 -0.59,-1.33 -1.33,-1.33c-0.74,0 -1.33,0.59 -1.33,1.33l0,2.67c0,0.73 0.59,1.33 1.33,1.33c0.74,0 1.33,-0.6 1.33,-1.33z" fill="#91f9bb" id="svg_42"/>
   <path d="m48,73.31l0,-2.67c0,-0.74 -0.6,-1.33 -1.33,-1.33c-0.74,0 -1.34,0.59 -1.34,1.33l0,2.67c0,0.73 0.6,1.33 1.34,1.33c0.73,0 1.33,-0.6 1.33,-1.33z" fill="#91f9bb" id="svg_43"/>
   <path d="m73.6,14.52c-0.57,-0.46 -1.41,-0.38 -1.87,0.19c-0.47,0.57 -0.38,1.41 0.19,1.88c0.32,0.26 0.63,0.54 0.93,0.82c0.25,0.25 0.59,0.38 0.92,0.38c0.35,0 0.7,-0.14 0.96,-0.41c0.51,-0.53 0.5,-1.37 -0.03,-1.88c-0.35,-0.34 -0.72,-0.67 -1.1,-0.98z" fill="#91f9bb" id="svg_44"/>
   <path d="m8.12,29.98c-0.76,-0.05 -1.37,0.5 -1.43,1.23c-0.01,0.25 -0.02,0.51 -0.02,0.76c0,0.74 0.59,1.34 1.33,1.34c0.74,0 1.33,-0.6 1.33,-1.34c0,-0.19 0.01,-0.38 0.02,-0.57c0.06,-0.73 -0.5,-1.37 -1.23,-1.42z" fill="#91f9bb" id="svg_45"/>
   <path d="m26.41,29.44c-0.72,0.1 -1.24,0.77 -1.14,1.5c0.04,0.34 0.06,0.68 0.06,1.03l0,0.23c0,0.74 0.6,1.34 1.34,1.34c0.73,0 1.33,-0.6 1.33,-1.34l0,-0.23c0,-0.46 -0.03,-0.93 -0.09,-1.38c-0.1,-0.73 -0.75,-1.24 -1.5,-1.15z" fill="#91f9bb" id="svg_46"/>
   <path d="m24.91,4.02c0.39,0.15 0.78,0.31 1.16,0.48c0.17,0.08 0.36,0.12 0.54,0.12c0.51,0 1,-0.29 1.22,-0.79c0.3,-0.67 0,-1.46 -0.67,-1.76c-0.43,-0.19 -0.87,-0.37 -1.31,-0.54c-0.68,-0.26 -1.46,0.09 -1.72,0.77c-0.26,0.69 0.09,1.46 0.78,1.72z" fill="#91f9bb" id="svg_47"/>
   <path d="m24.39,15.11c0.36,0.2 0.72,0.42 1.06,0.65c0.23,0.15 0.48,0.22 0.74,0.22c0.43,0 0.85,-0.21 1.11,-0.59c0.41,-0.61 0.24,-1.44 -0.37,-1.85c-0.4,-0.27 -0.82,-0.53 -1.25,-0.76c-0.65,-0.36 -1.46,-0.12 -1.81,0.52c-0.36,0.65 -0.12,1.46 0.52,1.81z" fill="#91f9bb" id="svg_48"/>
   <path d="m1.33,9.31c0.36,0 0.73,-0.15 0.99,-0.44c0.14,-0.15 0.28,-0.3 0.42,-0.44c0.51,-0.53 0.51,-1.37 -0.02,-1.89c-0.52,-0.51 -1.37,-0.5 -1.89,0.02c-0.16,0.17 -0.32,0.34 -0.48,0.52c-0.5,0.54 -0.46,1.38 0.08,1.88c0.26,0.23 0.58,0.35 0.9,0.35z" fill="#91f9bb" id="svg_49"/>
   <path d="m22.29,25.7c0.33,0.25 0.63,0.54 0.91,0.84c0.26,0.28 0.62,0.42 0.98,0.42c0.32,0 0.65,-0.12 0.91,-0.35c0.54,-0.5 0.57,-1.35 0.07,-1.89c-0.37,-0.4 -0.78,-0.77 -1.21,-1.11c-0.58,-0.46 -1.42,-0.36 -1.87,0.21c-0.46,0.58 -0.37,1.42 0.21,1.88z" fill="#91f9bb" id="svg_50"/>
   <path d="m29.75,20.17c0.26,0.4 0.69,0.62 1.13,0.62c0.25,0 0.49,-0.07 0.71,-0.2c0.62,-0.4 0.81,-1.22 0.42,-1.84c-0.26,-0.42 -0.54,-0.82 -0.83,-1.21c-0.45,-0.58 -1.28,-0.7 -1.87,-0.26c-0.59,0.44 -0.7,1.28 -0.26,1.87c0.25,0.33 0.48,0.67 0.7,1.02z" fill="#91f9bb" id="svg_51"/>
   <path d="m30.37,7.09c0.33,0.25 0.65,0.52 0.97,0.79c0.25,0.22 0.56,0.33 0.87,0.33c0.38,0 0.75,-0.16 1.01,-0.46c0.48,-0.55 0.43,-1.4 -0.13,-1.88c-0.36,-0.31 -0.72,-0.61 -1.1,-0.9c-0.58,-0.45 -1.41,-0.34 -1.86,0.25c-0.45,0.58 -0.34,1.42 0.24,1.87z" fill="#91f9bb" id="svg_52"/>
   <path d="m12.24,3.19c0.1,0 0.19,-0.01 0.29,-0.03c0.41,-0.09 0.82,-0.17 1.23,-0.24c0.73,-0.11 1.23,-0.8 1.11,-1.52c-0.11,-0.73 -0.8,-1.23 -1.52,-1.11c-0.47,0.07 -0.94,0.16 -1.39,0.26c-0.72,0.16 -1.18,0.87 -1.02,1.59c0.14,0.62 0.69,1.05 1.3,1.05z" fill="#91f9bb" id="svg_53"/>
   <path d="m18.79,2.69c0.42,0.03 0.84,0.07 1.25,0.12c0.06,0.01 0.12,0.01 0.17,0.01c0.66,0 1.24,-0.49 1.32,-1.16c0.1,-0.74 -0.42,-1.4 -1.15,-1.49c-0.47,-0.06 -0.94,-0.11 -1.41,-0.14c-0.72,-0.05 -1.37,0.51 -1.42,1.24c-0.05,0.74 0.51,1.37 1.24,1.42z" fill="#91f9bb" id="svg_54"/>
   <path d="m32.65,23.14c-0.72,0.16 -1.17,0.88 -1.01,1.59c0.09,0.4 0.16,0.81 0.22,1.22c0.09,0.67 0.66,1.15 1.32,1.15c0.06,0 0.12,0 0.18,-0.01c0.73,-0.1 1.24,-0.77 1.14,-1.5c-0.06,-0.49 -0.15,-0.97 -0.26,-1.45c-0.16,-0.71 -0.88,-1.16 -1.59,-1z" fill="#91f9bb" id="svg_55"/>
   <path d="m11.93,14.24c0.15,0 0.3,-0.02 0.45,-0.08c0.39,-0.14 0.79,-0.26 1.19,-0.36c0.71,-0.19 1.13,-0.92 0.94,-1.64c-0.18,-0.71 -0.92,-1.13 -1.63,-0.94c-0.47,0.12 -0.94,0.27 -1.4,0.43c-0.69,0.25 -1.05,1.01 -0.8,1.71c0.19,0.54 0.71,0.88 1.25,0.88z" fill="#91f9bb" id="svg_56"/>
   <path d="m18.49,13.35c0.42,0.03 0.83,0.08 1.23,0.15c0.08,0.01 0.15,0.02 0.22,0.02c0.64,0 1.21,-0.46 1.31,-1.12c0.12,-0.72 -0.37,-1.41 -1.1,-1.53c-0.47,-0.08 -0.96,-0.14 -1.45,-0.18c-0.73,-0.06 -1.38,0.49 -1.43,1.23c-0.06,0.73 0.49,1.38 1.22,1.43z" fill="#91f9bb" id="svg_57"/>
   <path d="m16.37,24.02c0.04,0 0.09,0 0.14,0c0.4,-0.04 0.82,-0.06 1.23,-0.04c0.77,0.04 1.37,-0.53 1.4,-1.26c0.04,-0.74 -0.53,-1.36 -1.26,-1.4c-0.55,-0.03 -1.11,-0.01 -1.65,0.04c-0.73,0.08 -1.26,0.73 -1.19,1.47c0.07,0.68 0.65,1.19 1.33,1.19z" fill="#91f9bb" id="svg_58"/>
  </g>
 </g>
</svg>